<?xml version="1.0" encoding="UTF-8"?>
<svg id="Layer_1" data-name="Layer 1" xmlns="http://www.w3.org/2000/svg" viewBox="0 0 2000 2000">
  <defs>
    <style>
      .cls-1 {
        fill: #0a7d4a;
      }

      .cls-2 {
        fill: #fff;
      }

      .cls-3 {
        fill: #10552c;
      }
    </style>
  </defs>
  <rect class="cls-2" width="2000" height="2000" rx="335.6" ry="335.6"/>
  <g>
    <g>
      <path class="cls-3" d="M931.09,1641.41c-72.22-10.36-144.12-36.78-201.98-74.23-22.4-14.38-22.75-15.05-16.72-21.06,10.7-10.36,155.5-100.33,161.53-100.33,3.01,0,13.38,3.01,22.75,6.68,48.48,18.4,122.06,21.73,178.24,8.37,117.37-28.43,210.35-118.71,242.79-236.76,10.36-37.45,14.38-104.33,8.37-142.8-20.74-133.09-123.73-241.1-253.82-266.19-32.78-6.36-57.52-6.36-57.52,0,0,2.68,5.34,28.43,12.04,57.19,6.68,28.76,11.37,52.83,10.7,53.5-.67.67-20.39-11.03-44.48-25.75-23.74-14.71-87.94-53.84-142.13-86.95-54.17-33.11-102.32-62.53-106.34-65.21-7.35-4.69-7.7-5.34-2.34-11.03,3.35-3.68,39.79-32.44,81.59-64.2,81.59-61.86,136.1-104.01,171.56-132.1,20.74-16.39,39.46-23.42,39.46-14.71,0,2.01-4.35,26.08-10.03,53.84-5.34,27.76-10.03,50.84-10.03,51.51s15.38,2.01,34.1,3.35c104.68,6.68,201.64,46.15,282.57,114.71,13.71,11.37,23.42,17.39,26.75,16.39,6.36-2.68,68.89-41.47,97.98-60.87,21.41-14.38,22.4-14.71,49.15-14.71s27.42,0,29.43-12.37c3.35-21.06,7.7-27.42,24.07-37.8,19.07-12.04,25.08-12.37,48.16-2.01,14.38,6.36,23.42,14.38,45.82,40.46,27.76,32.44,37.45,48.83,60.53,101.33,11.7,27.09,12.37,30.43,10.03,49.15-1.34,11.03-2.68,22.4-2.68,25.41-.33,3.01-8.69,11.37-18.73,18.4q-18.73,12.71-37.8,8.69c-26.42-5.34-25.41-5.69-30.1,10.36-8.02,27.42-14.05,33.11-78.92,74.23-61.86,39.46-62.86,40.13-60.53,50.17,10.7,53.5,12.37,72.57,10.7,128.75-3.35,117.05-35.79,211.35-104.68,302.64-63.2,83.94-165.2,152.83-269.86,182.24-56.18,15.72-139.78,20.74-199.65,11.7h.02ZM1439.07,788.67c35.79-29.76,29.43-32.44-17.06-6.36-19.07,10.36-35.12,19.72-35.79,20.39-1,.33,2.01,4.69,6.36,9.36,9.04,9.36,4.69,11.7,46.49-23.42v.02ZM1676.84,781.31c0-25.08-34.77-81.26-50.17-81.26-20.74,0,.67,59.86,29.43,83.6,16.39,13.38,20.74,13.04,20.74-2.34Z"/>
      <path class="cls-3" d="M275.64,1639.4c0-7.03,34.1-95.31,42.81-110.02,21.41-37.8,59.53-82.93,125.74-149.81,84.27-85.28,99.99-98.65,162.87-137.44,91.29-56.85,145.14-90.62,190.95-119.73,25.08-16.39,79.92-51.16,122.06-77.91,41.8-26.42,109.35-69.22,149.81-94.97,40.46-25.75,76.91-47.49,80.93-48.16,10.03-2.01,85.61,71.23,74.23,72.24-9.69,1-13.04-1-24.41-12.71-15.38-16.72-5.69-19.72-92.63,28.43-34.77,19.4-64.54,35.12-66.21,35.12s-12.37,10.7-23.74,23.42c-18.06,20.39-22.4,23.42-32.11,23.42-6.36,0-11.37-1.34-11.37-3.01s7.03-9.04,16.05-16.72c29.76-25.41,5.34-14.71-78.92,35.12-45.48,27.09-94.64,56.18-109.35,64.87s-67.21,39.79-117.05,69.22c-49.5,29.43-101.33,59.86-114.71,67.55q-24.07,14.05-18.73,24.07c14.05,27.76,38.79,66.55,42.14,66.55,2.01,0,8.69-4.69,15.05-10.03,13.04-11.7,21.73-16.05,189.94-98.99,361.83-177.9,335.42-163.52,363.17-194.96,13.71-15.38,35.79-40.13,49.15-55.18,13.04-14.71,24.07-28.09,24.07-29.43,0-1.67,2.34-2.68,5.34-2.68,11.7,0,40.13,77.58,43.81,120.72q1.67,18.4-27.76,37.13c-16.39,10.03-98.32,61.86-181.92,114.71-176.57,111.69-302.64,190.95-371.19,233.75-26.75,16.39-87.94,50.17-136.44,74.58-123.73,62.21-165.2,74.58-253.82,74.58-24.74,0-37.8-1.34-37.8-3.68l.03-.05ZM319.78,1617.67c28.43-12.37,112.36-45.82,140.45-56.18,15.72-5.69,16.05-6.01,11.37-14.71-3.68-7.35-4.02-9.36-.33-12.37,2.68-1.67,24.41-33.45,48.48-70.23,24.41-36.78,47.16-67.88,50.84-69.56,4.69-1.67,6.01-4.35,4.69-8.02-3.35-8.02-43.47-70.9-45.48-70.9-1,0-12.04,14.38-24.74,32.44-58.52,82.26-76.24,108.01-74.58,109.69,1,1,5.02,0,9.04-2.01,6.68-3.68,7.03-3.35,5.02,4.02-3.35,11.7-9.04,22.75-12.04,22.75-1.67,0-4.35-3.01-6.36-6.68s-5.02-6.01-6.68-5.02-26.08,30.1-54.17,64.54c-71.23,86.6-77.24,94.3-75.25,94.3,1,0,14.38-5.34,29.76-12.04l-.02-.02Z"/>
      <path class="cls-3" d="M500.03,1239.45c-2.01-7.03-6.01-27.76-9.36-46.15-5.69-31.1-6.01-65.88-6.01-478.2s.33-445.77,5.69-457.14c15.72-35.12,40.46-52.83,76.59-55.51,30.43-2.01,50.2,3.15,69.92,24.21,27.42,29.43,23.38-2.81,23.38,489.78q.33,436.73-24.07,452.79c-49.15,32.11-129.09,82.6-130.76,82.6-1.34,0-3.68-5.69-5.34-12.37l-.03-.02Z"/>
    </g>
    <g>
      <path class="cls-1" d="M421.17,1467.32c.34-4.77,1.72-8.16,2.76-7.83,1.03,0,9.64-3.74,19.28-8.51,39.94-20.74,117.4-54.75,126.35-55.77,8.61-1.01,9.3-.68,5.5,6.12-8.95,16.32-93.65,140.8-100.17,147.25-4.14,3.74-54.4-73.43-53.71-81.26Z"/>
      <path class="cls-1" d="M610.57,1364.79c7.35-6.36,24.74-20.74,38.45-31.44,13.71-10.7,36.46-29.43,50.17-41.13,60.87-52.5,292.28-243.46,287.92-237.43-2.34,3.35,5.69-4.69,18.4-18.06,12.71-13.38,24.07-24.07,25.75-24.07,1.34,0,30.43-15.72,65.21-34.77,85.95-47.49,90.62-49.82,95.31-45.82,15.38,13.04,42.47,40.46,48.83,49.82,9.04,13.04,8.69,13.71-23.74,49.5-11.37,13.04-32.11,36.11-45.82,51.51q-24.41,28.09-184.92,107.68c-88.29,43.81-161.18,79.59-161.53,79.59-.67,0-49.82,24.07-109.02,53.5-59.18,29.43-110.02,53.5-113.03,53.5-3.35-.33-.67-4.35,8.02-12.37v-.02Z"/>
    </g>
  </g>
</svg>