<?xml version="1.0" encoding="UTF-8"?>
<svg id="Layer_1" data-name="Layer 1" xmlns="http://www.w3.org/2000/svg" viewBox="0 0 8097.55 2000">
  <defs>
    <style>
      .cls-1 {
        isolation: isolate;
      }

      .cls-2 {
        fill: #0a7d4a;
      }

      .cls-3 {
        fill: #10552c;
      }
    </style>
  </defs>
  <g class="cls-1">
    <path class="cls-3" d="M2163.31,719.93h269.78c71.67,0,122.67,12.84,153.01,38.51,30.34,25.68,43.46,61.72,39.34,108.12-2.75,29.66-13.52,56.64-32.33,80.93-18.81,24.3-45.04,43.73-78.67,58.28-33.64,14.56-73.93,21.83-120.88,21.83l-3.71-6.18c49.7,0,89.23,5.35,118.62,16.06,29.38,10.71,49.98,25.74,61.78,45.1,11.81,19.36,16.06,42.36,12.77,68.99-6.04,45.86-31.58,81.49-76.61,106.89-45.04,25.4-109.56,38.1-193.58,38.1h-275.96c-12.91,0-21.56-2.54-25.95-7.62-4.39-5.08-6.59-11.46-6.59-19.15,0-7.14,2.12-13.39,6.38-18.74,4.26-5.35,9.95-9.54,17.1-12.56l18.53-5.77c6.59-2.74,11.12-6.38,13.59-10.91,2.47-4.53,5.08-11.18,7.82-19.98,2.47-7.41,5.83-18.87,10.09-34.39,4.26-15.51,9.13-33.63,14.62-54.37,5.49-20.73,11.26-42.63,17.3-65.69,6.04-23.07,12.01-45.99,17.91-68.79,5.9-22.79,11.39-44.07,16.47-63.84,5.08-19.77,9.41-36.59,12.98-50.46,3.57-13.86,5.9-23.41,7-28.63,4.12-16.74,6.93-28.83,8.45-36.24,1.5-7.41-2.67-13.31-12.56-17.71l-16.07-5.35c-6.32-3.02-10.98-6.45-14-10.3-3.03-3.85-4.53-8.65-4.53-14.42,0-9.33,3.22-16.95,9.68-22.86,6.45-5.9,15.86-8.85,28.21-8.85ZM2340.83,835.25c-3.57,14-7.82,30.89-12.77,50.66-4.94,19.77-10.3,40.98-16.06,63.64-5.77,22.65-11.6,45.65-17.51,68.99-5.91,23.34-11.6,45.79-17.09,67.35-5.5,21.56-10.44,40.92-14.83,58.07-4.4,17.16-7.97,30.83-10.71,40.98-3.3,12.63-3.23,23.27.21,31.92,3.43,8.65,9.47,15.11,18.12,19.36,8.65,4.26,18.74,6.38,30.27,6.38,27.46,0,49.77-7.82,66.93-23.47s28.63-39.68,34.39-72.08c5.49-31.03,2.06-54.23-10.3-69.61-12.35-15.38-31.58-23.07-57.66-23.07h-106.27l14.42-46.54h91.85c23.89,0,44.34-6.59,61.37-19.77,17.02-13.18,30.61-31.23,40.78-54.16,10.16-22.93,16.47-48.94,18.95-78.05,2.74-27.73-.76-48.39-10.5-61.99-9.75-13.59-23.14-20.39-40.16-20.39s-30.96,4.6-40.16,13.8c-9.2,9.2-16.96,25.19-23.27,47.98Z"/>
    <path class="cls-3" d="M3126.69,1179.99c5.21,2.75,8.03,7.83,8.44,15.24.42,7.42-2.41,16.89-8.44,28.42-13.18,25.54-33.71,46.13-61.58,61.78-27.87,15.65-60.62,23.47-98.24,23.47-23.06,0-40.71-4.53-52.92-13.59-12.22-9.06-18.33-22.1-18.33-39.13,0-10.16,2.4-21.42,7.21-33.78,4.8-12.35,10.36-25.19,16.68-38.51,6.31-13.31,12.15-26.57,17.5-39.75,5.36-13.18,8.45-25.67,9.27-37.48l14,3.7c-14.28,37.63-30.75,69.2-49.43,94.73-18.67,25.54-38.3,45.92-58.9,61.16-20.59,15.24-41.33,26.15-62.19,32.74-20.87,6.59-40.78,9.89-59.72,9.89-26.36,0-46.2-5.83-59.52-17.5-13.32-11.67-20.59-27.73-21.83-48.19-1.23-20.46,2.81-43.87,12.15-70.23l40.36-114.92c6.59-18.67,8.92-31.64,7-38.92-1.92-7.27-5.63-10.91-11.12-10.91-3.02,0-6.04.69-9.06,2.06-3.03,1.38-6.87,3.98-11.54,7.82-6.59,5.22-12.02,8.31-16.27,9.27-4.26.96-8.45.48-12.56-1.44-5.22-2.74-8.03-7.83-8.45-15.24-.41-7.42,2.4-16.89,8.45-28.42,13.18-25.54,33.42-46.13,60.75-61.78,27.31-15.65,59.51-23.48,96.59-23.48,27.73,0,48.12,5.29,61.16,15.86,13.04,10.57,19.97,25.33,20.8,44.27.82,18.95-3.3,41.05-12.36,66.31l-40.36,114.5c-6.87,18.12-9.54,31.79-8.03,40.98,1.5,9.2,7.75,13.8,18.74,13.8,7.14,0,14.62-2.4,22.45-7.21,7.82-4.8,15.58-11.53,23.27-20.18,7.69-8.65,15.03-19.01,22.04-31.1,7-12.08,13.38-25.54,19.15-40.36,5.22-13.18,9.61-24.98,13.18-35.42,3.57-10.43,6.31-19.63,8.24-27.59,1.92-7.96,2.88-14.83,2.88-20.59,0-9.06-1.58-17.43-4.74-25.12-3.16-7.69-4.74-16.47-4.74-26.36,0-18.67,11.81-33.63,35.42-44.9,23.62-11.26,56.7-16.89,99.26-16.89,30.2,0,48.53,9.47,54.99,28.42,6.45,18.95,3.63,44.63-8.45,77.02l-54.78,145.39c-6.87,18.4-9.27,31.3-7.21,38.71,2.06,7.42,5.83,11.12,11.33,11.12,3.02,0,6.04-.75,9.06-2.27,3.02-1.5,6.86-4.05,11.53-7.62,6.59-5.49,12.01-8.71,16.27-9.68,4.26-.96,8.45-.34,12.56,1.85Z"/>
    <path class="cls-3" d="M3468.94,829.89l-98.44,317.97c-6.04,18.94-8.24,31.99-6.59,39.13,1.65,7.15,5.21,10.71,10.71,10.71,3.02,0,6.04-.75,9.06-2.27,3.02-1.5,6.86-4.05,11.53-7.62,6.59-5.49,12.01-8.71,16.27-9.68,4.25-.96,8.45-.34,12.56,1.85,5.22,2.75,8.03,7.83,8.45,15.24.41,7.42-2.41,16.89-8.45,28.42-8.79,17.03-20.8,31.92-36.04,44.69-15.24,12.77-33.09,22.72-53.54,29.86-20.46,7.14-43.04,10.71-67.75,10.71-27.74,0-47.92-5.22-60.55-15.65-12.63-10.43-19.3-25.12-19.98-44.07-.69-18.95,2.94-41.19,10.91-66.72l98.44-317.97c6.04-18.95,8.24-31.98,6.59-39.13-1.65-7.14-5.22-10.71-10.71-10.71-3.02,0-6.04.69-9.06,2.06-3.03,1.38-6.87,3.98-11.54,7.82-6.59,5.22-12.01,8.31-16.27,9.27-4.26.96-8.45.48-12.56-1.44-5.22-2.74-8.03-7.83-8.45-15.24-.41-7.42,2.4-16.89,8.45-28.42,8.78-17.02,20.8-31.92,36.04-44.69,15.24-12.77,33.09-22.72,53.54-29.86,20.45-7.14,43.04-10.71,67.76-10.71,27.73,0,47.91,5.22,60.55,15.65,12.62,10.44,19.29,25.12,19.97,44.07s-2.95,41.19-10.91,66.72Z"/>
    <path class="cls-3" d="M3769.61,829.89l-98.44,317.97c-6.04,18.94-8.23,31.99-6.59,39.13,1.65,7.15,5.21,10.71,10.71,10.71,3.02,0,6.04-.75,9.06-2.27,3.02-1.5,6.86-4.05,11.53-7.62,6.59-5.49,12.01-8.71,16.27-9.68,4.25-.96,8.44-.34,12.56,1.85,5.21,2.75,8.03,7.83,8.45,15.24.41,7.42-2.41,16.89-8.45,28.42-8.79,17.03-20.8,31.92-36.04,44.69-15.24,12.77-33.09,22.72-53.55,29.86-20.46,7.14-43.04,10.71-67.75,10.71-27.74,0-47.92-5.22-60.55-15.65-12.63-10.43-19.3-25.12-19.98-44.07-.69-18.95,2.95-41.19,10.91-66.72l98.44-317.97c6.04-18.95,8.23-31.98,6.59-39.13-1.65-7.14-5.22-10.71-10.71-10.71-3.03,0-6.04.69-9.06,2.06-3.02,1.38-6.87,3.98-11.53,7.82-6.59,5.22-12.02,8.31-16.27,9.27-4.26.96-8.45.48-12.56-1.44-5.22-2.74-8.03-7.83-8.44-15.24-.42-7.42,2.4-16.89,8.44-28.42,8.78-17.02,20.8-31.92,36.04-44.69,15.24-12.77,33.09-22.72,53.55-29.86,20.45-7.14,43.04-10.71,67.75-10.71,27.73,0,47.91,5.22,60.55,15.65,12.63,10.44,19.29,25.12,19.98,44.07.68,18.95-2.95,41.19-10.91,66.72Z"/>
    <path class="cls-3" d="M3867.62,1123.15c18.39-4.94,34.94-9.33,49.63-13.18,14.69-3.84,30.48-8.03,47.37-12.56,16.89-4.53,33.42-8.92,49.63-13.18,16.2-4.25,30.07-8.03,41.6-11.33l-16.47,18.12c3.3-10.98,5.97-24.1,8.03-39.34,2.06-15.24,3.22-32.19,3.5-50.87,0-14.27-2.13-25.39-6.39-33.36-4.26-7.96-10.78-11.94-19.56-11.94-7.41,0-14.69,3.09-21.83,9.27-7.14,6.18-13.8,15.1-19.98,26.77-6.18,11.67-11.53,25.82-16.06,42.42-4.53,16.62-7.9,35.49-10.09,56.63-3.57,38.72,1.09,68.1,14,88.14,12.9,20.05,33.5,30.07,61.78,30.07,14,0,26.91-2.33,38.72-7,11.8-4.66,22.92-11.05,33.36-19.15,10.43-8.1,20.18-17.37,29.24-27.8,8.78-10.16,16.06-17.02,21.83-20.59,5.77-3.57,12.08-5.21,18.95-4.94,7.96.28,14.34,3.91,19.15,10.91,4.8,7,5.15,18.19,1.03,33.57-6.04,23.34-18.47,45.31-37.27,65.9-18.82,20.59-44.15,37.27-75.99,50.04-31.86,12.77-70.84,19.15-116.97,19.15s-82.24-7.27-109.97-21.83c-27.74-14.55-47.16-35.14-58.28-61.78-11.12-26.63-15.03-58.07-11.74-94.32,3.3-33.22,12.15-64.04,26.57-92.47,14.42-28.42,33.57-53.19,57.46-74.34,23.89-21.14,51.62-37.62,83.2-49.43,31.57-11.8,66.04-17.71,103.38-17.71,30.2,0,54.84,4.94,73.93,14.83,19.08,9.89,33.63,23.27,43.66,40.16,10.02,16.89,16.54,36.18,19.56,57.87,1.1,6.32,2.74,12.01,4.94,17.09,2.19,5.08,5.21,8.45,9.06,10.09,4.12,1.65,7.34,3.85,9.68,6.59,2.33,2.75,3.5,6.59,3.5,11.54,0,6.86-2.68,13.32-8.03,19.35-5.35,6.04-15.31,10.99-29.86,14.83-13.18,3.3-29.86,7.56-50.04,12.77-20.18,5.22-41.95,10.85-65.28,16.89-23.34,6.04-46.48,12.08-69.4,18.12-22.93,6.04-43.87,11.47-62.81,16.27-18.95,4.81-39.82,10.23-62.61,16.27l-4.12-46.54Z"/>
    <path class="cls-3" d="M4298.86,987.64l-16.47-7c-6.87-3.02-11.88-7.07-15.03-12.15-3.16-5.08-4.74-10.77-4.74-17.09,0-9.06,3.77-16.2,11.33-21.42,7.55-5.21,17.64-7.83,30.27-7.83h17.3c11.25,0,21.48-2.47,30.68-7.41,9.19-4.94,18.46-12.08,27.8-21.42l63.43-63.43c6.86-6.86,13.65-11.67,20.39-14.42,6.73-2.74,14.07-4.12,22.03-4.12,9.89,0,17.16,2.47,21.83,7.41,4.67,4.94,7,11.4,7,19.36,0,4.67-.62,11.19-1.86,19.56-1.23,8.38-3.37,17.91-6.38,28.62l-72.08,259.89c-5.22,19.23-5.97,32.82-2.27,40.78,3.71,7.97,12.01,11.95,24.92,11.95,7.96,0,15.65-1.99,23.07-5.97,7.41-3.98,15.37-10.5,23.89-19.56,5.49-5.77,10.16-9.74,14-11.95,3.85-2.19,7.96-3.29,12.36-3.29,5.49,0,9.95,1.99,13.38,5.97,3.43,3.98,4.6,9.54,3.5,16.68-1.92,14.28-8.24,28.9-18.95,43.87-10.71,14.97-24.99,28.83-42.83,41.6-17.85,12.77-38.58,23.07-62.19,30.89-23.62,7.83-49.43,11.74-77.44,11.74s-47.57-5.42-61.99-16.27c-14.42-10.84-22.59-27.45-24.51-49.84-1.92-22.38,2.19-51,12.36-85.87l33.78-114.92c5.49-18.12,7.62-30.95,6.38-38.51-1.23-7.55-5.56-12.83-12.98-15.86ZM4448.79,990.53l20.59-65.49h95.97c15.1,0,22.65,7.28,22.65,21.83,0,13.46-5.29,24.1-15.86,31.92-10.58,7.83-24.78,11.74-42.63,11.74h-80.73Z"/>
    <path class="cls-3" d="M4784.87,1056.43l44.9-41.19c12.08,7.69,24.98,13.04,38.71,16.06,13.73,3.02,28.83,4.53,45.31,4.53,23.62,0,44.34-6.04,62.2-18.12,17.85-12.08,32.54-29.1,44.07-51.07,11.54-21.97,19.36-47.78,23.48-77.43,3.84-27.46,3.22-49.63-1.85-66.52-5.08-16.89-13.12-29.31-24.1-37.28-10.99-7.96-23.62-11.94-37.9-11.94-16.47,0-28.49,4.12-36.04,12.36-7.55,8.23-13.66,19.35-18.33,33.36-2.2,6.59-5.43,17.58-9.68,32.95-4.26,15.38-9.14,33.5-14.62,54.36-5.5,20.87-11.4,43.25-17.71,67.14-6.32,23.89-12.56,47.78-18.74,71.67-6.18,23.89-12.02,46.48-17.51,67.75-5.5,21.28-10.23,39.89-14.21,55.81-3.98,15.93-6.79,27.59-8.44,35.01-2.47,10.16-2.54,16.68-.21,19.56,2.33,2.88,5.83,5.56,10.5,8.03l15.24,6.18c6.04,3.58,10.84,7.48,14.42,11.74,3.56,4.26,5.35,9.68,5.35,16.27,0,9.34-3.09,16.82-9.27,22.45-6.18,5.63-15.59,8.45-28.22,8.45h-214.59c-12.63,0-21.21-2.54-25.74-7.62-4.53-5.08-6.79-11.46-6.79-19.15s2.4-14.55,7.21-19.77c4.8-5.21,10.23-9.06,16.27-11.53l18.54-5.77c5.77-2.19,10.02-5.35,12.77-9.47,2.74-4.12,5.35-10.02,7.82-17.71,1.65-5.21,4.53-15.37,8.65-30.48,4.12-15.1,8.99-33.36,14.62-54.78,5.62-21.42,11.66-44.41,18.12-68.99,6.45-24.57,12.9-49.22,19.36-73.93,6.45-24.71,12.49-47.84,18.12-69.4,5.62-21.55,10.36-40.02,14.21-55.4,3.85-15.38,6.45-25.95,7.83-31.72,3.02-12.08,4.6-20.73,4.74-25.95.13-5.21-3.78-9.61-11.74-13.18l-16.48-5.35c-5.77-2.74-10.3-6.11-13.59-10.09-3.3-3.98-4.94-8.99-4.94-15.03,0-9.33,3.36-16.89,10.09-22.66,6.72-5.77,15.99-8.65,27.8-8.65h254.54c52.99,0,97.27,7.82,132.83,23.47,35.56,15.65,60.89,37.9,75.99,66.72,15.1,28.83,18.26,63.02,9.47,102.56-7.14,35.15-23.68,65.63-49.63,91.44-25.95,25.82-59.51,45.79-100.7,59.93-41.19,14.15-88.14,21.63-140.86,22.45-32.95.55-60.28-1.99-81.96-7.62-21.7-5.62-41.47-13.11-59.31-22.45ZM4902.67,1078.26l165.58-28.83,28.83,103.8c1.92,7.14,4.39,13.38,7.42,18.74,3.02,5.36,6.59,9.47,10.71,12.36,4.12,2.88,8.78,4.33,14,4.33,6.04,0,11.8-1.78,17.3-5.35,5.49-3.57,11.26-8.37,17.3-14.42,2.74-2.19,6.24-3.84,10.5-4.94,4.25-1.09,8.17-.96,11.74.41,6.59,2.2,10.77,6.52,12.56,12.98,1.78,6.45.75,14.35-3.09,23.68-14,33.78-35.97,60.21-65.9,79.29-29.93,19.08-62.88,28.62-98.85,28.62-16.47,0-30.55-2.33-42.22-7-11.67-4.67-21.21-12.01-28.63-22.03-7.41-10.02-13.18-22.99-17.3-38.92l-39.95-162.69Z"/>
    <path class="cls-3" d="M5318.66,1123.15c18.39-4.94,34.94-9.33,49.63-13.18,14.69-3.84,30.48-8.03,47.36-12.56,16.89-4.53,33.43-8.92,49.63-13.18,16.2-4.25,30.07-8.03,41.6-11.33l-16.47,18.12c3.29-10.98,5.97-24.1,8.03-39.34,2.06-15.24,3.22-32.19,3.5-50.87,0-14.27-2.13-25.39-6.38-33.36-4.26-7.96-10.78-11.94-19.56-11.94-7.42,0-14.69,3.09-21.83,9.27-7.15,6.18-13.8,15.1-19.98,26.77-6.18,11.67-11.54,25.82-16.06,42.42-4.53,16.62-7.9,35.49-10.09,56.63-3.58,38.72,1.09,68.1,14,88.14,12.9,20.05,33.5,30.07,61.78,30.07,14,0,26.91-2.33,38.72-7,11.8-4.66,22.93-11.05,33.36-19.15,10.43-8.1,20.18-17.37,29.24-27.8,8.79-10.16,16.07-17.02,21.83-20.59,5.77-3.57,12.08-5.21,18.94-4.94,7.96.28,14.35,3.91,19.15,10.91,4.8,7,5.15,18.19,1.03,33.57-6.04,23.34-18.47,45.31-37.27,65.9-18.81,20.59-44.14,37.27-75.99,50.04-31.86,12.77-70.84,19.15-116.97,19.15s-82.24-7.27-109.97-21.83c-27.74-14.55-47.16-35.14-58.28-61.78-11.12-26.63-15.03-58.07-11.74-94.32,3.29-33.22,12.15-64.04,26.57-92.47,14.42-28.42,33.57-53.19,57.46-74.34,23.89-21.14,51.62-37.62,83.2-49.43,31.57-11.8,66.03-17.71,103.38-17.71,30.2,0,54.84,4.94,73.93,14.83,19.08,9.89,33.63,23.27,43.66,40.16,10.02,16.89,16.54,36.18,19.56,57.87,1.09,6.32,2.74,12.01,4.94,17.09,2.19,5.08,5.21,8.45,9.06,10.09,4.12,1.65,7.34,3.85,9.68,6.59,2.33,2.75,3.5,6.59,3.5,11.54,0,6.86-2.67,13.32-8.03,19.35-5.35,6.04-15.31,10.99-29.86,14.83-13.18,3.3-29.86,7.56-50.04,12.77-20.18,5.22-41.95,10.85-65.28,16.89-23.34,6.04-46.48,12.08-69.4,18.12-22.93,6.04-43.86,11.47-62.81,16.27-18.95,4.81-39.82,10.23-62.6,16.27l-4.12-46.54Z"/>
    <path class="cls-3" d="M5771.52,1205.32c-.14-11.39-.41-23.2-.82-35.42-.41-12.21-.82-24.71-1.24-37.48-.41-12.77-.89-25.81-1.44-39.13-.55-13.31-1.1-26.98-1.65-40.98-.28-10.16-1.44-16.68-3.5-19.56-2.06-2.88-4.74-4.33-8.03-4.33-2.75,0-5.35.9-7.83,2.68-2.47,1.79-5.22,5.01-8.24,9.68-5.22,8.51-9.88,14.21-14,17.09-4.12,2.89-8.79,4.33-14,4.33-6.87-.27-12.22-2.95-16.06-8.03-3.85-5.08-4.53-13.11-2.06-24.09,5.21-23.07,16.34-44.21,33.36-63.43,17.02-19.22,38.1-34.6,63.22-46.13,25.12-11.53,52.11-17.3,80.93-17.3,24.44,0,41.12,7.14,50.04,21.42,8.92,14.28,14.21,36.8,15.86,67.55.82,17.3,1.58,33.57,2.27,48.81.68,15.24,1.3,29.31,1.85,42.22.55,12.91,1.03,24.78,1.44,35.63.41,10.85.75,20.59,1.03,29.24.27,8.65.41,16.13.41,22.45.54,16.75,2.19,27.87,4.94,33.36,2.74,5.5,6.72,8.23,11.94,8.23,4.66,0,9.95-2.88,15.86-8.65,5.9-5.77,11.8-13.52,17.71-23.27,5.9-9.74,11.46-20.52,16.68-32.33,5.21-11.81,9.61-23.89,13.18-36.24,3.57-12.36,5.77-24.03,6.59-35.01,1.09-11.54.34-20.11-2.27-25.74-2.61-5.63-7.35-12.15-14.21-19.56-7.69-7.96-13.46-16.33-17.3-25.12-3.85-8.78-5.22-19.77-4.12-32.95,1.65-22.24,10.5-40.5,26.57-54.78,16.06-14.27,36.86-21.42,62.4-21.42s44.27,7.21,57.04,21.63c12.77,14.42,18.05,35.9,15.86,64.46-2.2,29.39-9.27,59.38-21.21,90-11.94,30.62-27.87,60-47.78,88.14-19.91,28.15-42.77,53.34-68.58,75.58-25.81,22.24-53.68,39.82-83.61,52.72-29.93,12.9-60.96,19.35-93.09,19.35-22.52,0-39.27-5.35-50.25-16.06-10.98-10.71-16.75-28.69-17.3-53.95-.28-10.98-.48-22.17-.62-33.57Z"/>
    <path class="cls-3" d="M6377.59,1147.87c-6.32,18.67-8.59,31.65-6.8,38.92,1.78,7.28,5.42,10.92,10.91,10.92,3.02,0,6.04-.75,9.06-2.27,3.02-1.5,6.86-4.05,11.53-7.62,6.59-5.49,12.01-8.71,16.27-9.68,4.25-.96,8.44-.34,12.56,1.85,5.21,2.75,8.03,7.83,8.45,15.24.41,7.42-2.41,16.89-8.45,28.42-13.18,25.54-33.43,46.13-60.75,61.78-27.32,15.65-59.52,23.47-96.59,23.47-27.74,0-48.05-5.35-60.96-16.06-12.91-10.71-19.56-25.6-19.98-44.69-.41-19.08,3.91-41.39,12.98-66.93l44.48-123.15c6.86-18.67,9.27-31.64,7.21-38.92-2.06-7.27-5.84-10.91-11.33-10.91-3.03,0-6.04.69-9.06,2.06-3.03,1.38-6.87,3.98-11.53,7.82-6.59,5.22-12.02,8.31-16.27,9.27-4.26.96-8.44.48-12.56-1.44-5.22-2.74-8.03-7.83-8.45-15.24-.41-7.42,2.4-16.89,8.45-28.42,12.9-25.26,32.81-45.78,59.72-61.58,26.91-15.79,58.48-23.68,94.73-23.68,24.71,0,43.59,5.22,56.63,15.65,13.04,10.44,20.46,25.61,22.24,45.51,1.78,19.91-2.27,44.15-12.15,72.7l-40.36,116.97ZM6378.41,855.43c-29.66,0-52.17-6.73-67.55-20.18-15.38-13.45-23.06-29.93-23.06-49.42,0-16.2,4.94-31.51,14.83-45.93,9.89-14.41,24.02-26.15,42.42-35.21,18.39-9.06,40.5-13.59,66.31-13.59,31.03,0,53.55,7,67.55,21.01,14,14,21.01,30.48,21.01,49.43,0,17.85-5.02,33.91-15.03,48.19-10.03,14.28-24.1,25.47-42.22,33.57-18.12,8.1-39.54,12.15-64.25,12.15Z"/>
    <path class="cls-3" d="M6652.72,1255.37c11.53,0,20.52-3.15,26.98-9.47,6.45-6.31,9.68-14.55,9.68-24.71,0-7.96-1.85-15.17-5.56-21.62-3.71-6.45-10.78-13.18-21.21-20.18-10.44-7-25.95-15.45-46.54-25.33-23.62-11.53-42.63-22.93-57.05-34.19-14.41-11.26-24.91-23.68-31.51-37.27-6.59-13.59-9.89-29.17-9.89-46.75,0-24.98,8.3-47.99,24.92-68.99,16.61-21.01,40.84-37.89,72.7-50.66,31.85-12.77,70.98-19.15,117.39-19.15,36.24,0,66.03,4.33,89.37,12.98,23.34,8.65,40.78,20.59,52.31,35.83,11.53,15.24,17.3,32.74,17.3,52.51.27,20.32-3.64,35.83-11.74,46.54-8.1,10.71-19.43,16.07-33.98,16.07-13.46,0-25.12-4.26-35.01-12.77-9.89-8.51-20.05-23.89-30.48-46.13-9.62-17.85-19.84-31.23-30.68-40.16-10.85-8.92-23.27-13.38-37.27-13.38-10.16,0-18.19,2.61-24.1,7.82-5.91,5.22-8.86,13.04-8.86,23.48,0,7.14,1.92,14.28,5.77,21.42,3.85,7.14,11.12,14.97,21.83,23.48,10.71,8.51,26.22,18.4,46.54,29.65,26.36,14.28,46.75,27.53,61.16,39.75,14.42,12.22,24.37,24.86,29.86,37.9,5.49,13.04,8.24,28.08,8.24,45.1,0,25.81-8.79,48.6-26.36,68.37-17.58,19.77-42.15,35.28-73.73,46.54-31.58,11.26-68.64,16.89-111.2,16.89s-74.41-4.74-99.68-14.21c-25.27-9.47-43.59-22.24-54.99-38.31-11.39-16.06-17.09-33.84-17.09-53.34.55-18.12,4.87-32.47,12.97-43.04,8.1-10.57,19.29-15.86,33.57-15.86,16.74,0,30.48,5.15,41.19,15.45,10.71,10.3,20.86,25.61,30.48,45.92,10.16,18.95,20.32,31.99,30.48,39.13,10.16,7.14,21.55,10.71,34.19,10.71Z"/>
    <path class="cls-3" d="M7169.22,896.21c48.05,0,88.28,8.72,120.68,26.15,32.39,17.44,55.46,42.01,69.19,73.73,13.73,31.71,16.47,69.13,8.24,112.24-6.04,31.3-16.47,59.38-31.3,84.23-14.83,24.85-33.43,45.92-55.81,63.22-22.39,17.3-48.05,30.48-77.02,39.54-28.97,9.06-60.62,13.59-94.94,13.59-48.05,0-88.28-8.72-120.68-26.15-32.4-17.43-55.4-42.07-68.99-73.93-13.59-31.85-16.41-69.2-8.45-112.03,6.04-31.3,16.47-59.38,31.3-84.23,14.83-24.85,33.43-45.92,55.81-63.22,22.38-17.3,48.05-30.48,77.02-39.54,28.97-9.06,60.61-13.59,94.94-13.59ZM7100.85,1246.3c6.04,1.38,11.87.96,17.51-1.23,5.62-2.19,11.18-6.45,16.68-12.77,5.49-6.31,10.91-14.69,16.27-25.12,5.35-10.43,10.64-23.33,15.86-38.71,5.22-15.38,10.43-33.22,15.66-53.55,8.23-32.39,13.52-59.79,15.86-82.17,2.33-22.38,1.71-39.75-1.86-52.1-3.57-12.36-10.3-19.63-20.18-21.83-6.04-1.37-11.88-.96-17.5,1.23-5.63,2.2-11.19,6.46-16.68,12.77-5.5,6.32-10.92,14.7-16.27,25.12-5.35,10.44-10.64,23.34-15.86,38.72-5.22,15.38-10.44,33.23-15.65,53.54-8.23,32.13-13.52,59.45-15.86,81.97-2.34,22.51-1.65,39.95,2.06,52.31,3.71,12.35,10.37,19.63,19.98,21.83Z"/>
    <path class="cls-3" d="M7424.99,1025.95c-5.22-2.74-8.03-7.83-8.44-15.24-.41-7.42,2.4-16.89,8.44-28.42,8.79-17.02,20.87-31.92,36.25-44.69,15.37-12.77,33.22-22.72,53.54-29.86,20.32-7.14,42.42-10.71,66.31-10.71,20.86,0,36.45,4.53,46.75,13.59,10.3,9.06,15.45,22.11,15.45,39.13,0,10.16-1.92,21.42-5.77,33.77-3.85,12.36-8.38,25.2-13.59,38.51-5.22,13.32-10.03,26.57-14.42,39.75-4.4,13.18-7,25.68-7.83,37.48l-8.23-2.88c10.16-38.72,22.38-70.98,36.66-96.79,14.27-25.81,29.58-46.2,45.92-61.16,16.33-14.97,32.74-25.6,49.22-31.92,16.47-6.31,31.98-9.47,46.54-9.47,26.9,0,47.63,8.45,62.19,25.33,14.55,16.89,21.27,39.07,20.18,66.52-.82,24.44-6.25,45.38-16.27,62.81-10.03,17.44-22.72,30.75-38.1,39.95-15.38,9.2-31.86,13.79-49.43,13.79-19.77,0-33.84-4.18-42.22-12.56-8.38-8.37-12.56-17.64-12.56-27.8,0-7.96,1.23-15.58,3.7-22.86,2.47-7.27,3.71-14.48,3.71-21.62,0-5.49-1.44-9.74-4.33-12.77-2.88-3.02-6.52-4.53-10.91-4.53-6.32,0-12.77,3.09-19.36,9.27-6.59,6.18-13.79,17.09-21.62,32.75-7.82,15.65-16.82,37.89-26.98,66.72-6.87,19.5-11.6,35.28-14.21,47.36-2.61,12.08-3.91,23.21-3.91,33.36s2.19,17.5,6.59,22.03c4.38,4.53,8.78,9.06,13.18,13.59,4.39,4.53,6.59,11.88,6.59,22.03,0,11.26-5.56,21.35-16.68,30.27-11.12,8.93-27.87,15.86-50.25,20.8-22.38,4.94-50.73,7.41-85.05,7.41-21.97,0-38.1-4.32-48.4-12.97-10.3-8.65-15.59-20.86-15.86-36.66-.28-15.79,3.71-34.39,11.94-55.81l54.78-145.39c7.14-18.67,9.61-31.64,7.41-38.92-2.2-7.27-6.04-10.91-11.53-10.91-3.02,0-6.04.69-9.06,2.06-3.02,1.38-6.86,3.98-11.53,7.82-6.59,5.22-12.02,8.31-16.27,9.27-4.26.96-8.45.48-12.56-1.44Z"/>
  </g>
  <g>
    <g>
      <path class="cls-3" d="M1045.02,1646.54c-72.22-10.36-144.12-36.78-201.98-74.23-22.4-14.38-22.75-15.05-16.72-21.06,10.7-10.36,155.5-100.33,161.53-100.33,3.01,0,13.38,3.01,22.75,6.68,48.48,18.4,122.06,21.73,178.24,8.37,117.37-28.43,210.35-118.71,242.79-236.76,10.36-37.45,14.38-104.33,8.37-142.8-20.74-133.09-123.73-241.1-253.82-266.19-32.78-6.36-57.52-6.36-57.52,0,0,2.68,5.34,28.43,12.04,57.19,6.68,28.76,11.37,52.83,10.7,53.5-.67.67-20.39-11.03-44.48-25.75-23.74-14.71-87.94-53.84-142.13-86.95-54.17-33.11-102.32-62.53-106.34-65.21-7.35-4.69-7.7-5.34-2.34-11.03,3.35-3.68,39.79-32.44,81.59-64.2,81.59-61.86,136.1-104.01,171.56-132.1,20.74-16.39,39.46-23.42,39.46-14.71,0,2.01-4.35,26.08-10.03,53.84-5.34,27.76-10.03,50.84-10.03,51.51s15.38,2.01,34.1,3.35c104.68,6.68,201.64,46.15,282.57,114.71,13.71,11.37,23.42,17.39,26.75,16.39,6.36-2.68,68.89-41.47,97.98-60.87,21.41-14.38,22.4-14.71,49.15-14.71s27.42,0,29.43-12.37c3.35-21.06,7.7-27.42,24.07-37.8,19.07-12.04,25.08-12.37,48.16-2.01,14.38,6.36,23.42,14.38,45.82,40.46,27.76,32.44,37.45,48.83,60.53,101.33,11.7,27.09,12.37,30.43,10.03,49.15-1.34,11.03-2.68,22.4-2.68,25.41-.33,3.01-8.69,11.37-18.73,18.4q-18.73,12.71-37.8,8.69c-26.42-5.34-25.41-5.69-30.1,10.36-8.02,27.42-14.05,33.11-78.92,74.23-61.86,39.46-62.86,40.13-60.53,50.17,10.7,53.5,12.37,72.57,10.7,128.75-3.35,117.05-35.79,211.35-104.68,302.64-63.2,83.94-165.2,152.83-269.86,182.24-56.18,15.72-139.78,20.74-199.65,11.7h.02ZM1553,793.79c35.79-29.76,29.43-32.44-17.06-6.36-19.07,10.36-35.12,19.72-35.79,20.39-1,.33,2.01,4.69,6.36,9.36,9.04,9.36,4.69,11.7,46.49-23.42v.02ZM1790.77,786.44c0-25.08-34.77-81.26-50.17-81.26-20.74,0,.67,59.86,29.43,83.6,16.39,13.38,20.74,13.04,20.74-2.34Z"/>
      <path class="cls-3" d="M389.58,1644.53c0-7.03,34.1-95.31,42.81-110.02,21.41-37.8,59.53-82.93,125.74-149.81,84.27-85.28,99.99-98.65,162.87-137.44,91.29-56.85,145.14-90.62,190.95-119.73,25.08-16.39,79.92-51.16,122.06-77.91,41.8-26.42,109.35-69.22,149.81-94.97,40.46-25.75,76.91-47.49,80.93-48.16,10.03-2.01,85.61,71.23,74.23,72.24-9.69,1-13.04-1-24.41-12.71-15.38-16.72-5.69-19.72-92.63,28.43-34.77,19.4-64.54,35.12-66.21,35.12s-12.37,10.7-23.74,23.42c-18.06,20.39-22.4,23.42-32.11,23.42-6.36,0-11.37-1.34-11.37-3.01s7.03-9.04,16.05-16.72c29.76-25.41,5.34-14.71-78.92,35.12-45.48,27.09-94.64,56.18-109.35,64.87s-67.21,39.79-117.05,69.22c-49.5,29.43-101.33,59.86-114.71,67.55q-24.07,14.05-18.73,24.07c14.05,27.76,38.79,66.55,42.14,66.55,2.01,0,8.69-4.69,15.05-10.03,13.04-11.7,21.73-16.05,189.94-98.99,361.83-177.9,335.42-163.52,363.17-194.96,13.71-15.38,35.79-40.13,49.15-55.18,13.04-14.71,24.07-28.09,24.07-29.43,0-1.67,2.34-2.68,5.34-2.68,11.7,0,40.13,77.58,43.81,120.72q1.67,18.4-27.76,37.13c-16.39,10.03-98.32,61.86-181.92,114.71-176.57,111.69-302.64,190.95-371.19,233.75-26.75,16.39-87.94,50.17-136.44,74.58-123.73,62.21-165.2,74.58-253.82,74.58-24.74,0-37.8-1.34-37.8-3.68l.03-.05ZM433.71,1622.79c28.43-12.37,112.36-45.82,140.45-56.18,15.72-5.69,16.05-6.01,11.37-14.71-3.68-7.35-4.02-9.36-.33-12.37,2.68-1.67,24.41-33.45,48.48-70.23,24.41-36.78,47.16-67.88,50.84-69.56,4.69-1.67,6.01-4.35,4.69-8.02-3.35-8.02-43.47-70.9-45.48-70.9-1,0-12.04,14.38-24.74,32.44-58.52,82.26-76.24,108.01-74.58,109.69,1,1,5.02,0,9.04-2.01,6.68-3.68,7.03-3.35,5.02,4.02-3.35,11.7-9.04,22.75-12.04,22.75-1.67,0-4.35-3.01-6.36-6.68s-5.02-6.01-6.68-5.02-26.08,30.1-54.17,64.54c-71.23,86.6-77.24,94.3-75.25,94.3,1,0,14.38-5.34,29.76-12.04l-.02-.02Z"/>
      <path class="cls-3" d="M613.96,1244.58c-2.01-7.03-6.01-27.76-9.36-46.15-5.69-31.1-6.01-65.88-6.01-478.2s.33-445.77,5.69-457.14c15.72-35.12,40.46-52.83,76.59-55.51,30.43-2.01,50.2,3.15,69.92,24.21,27.42,29.43,23.38-2.81,23.38,489.78q.33,436.73-24.07,452.79c-49.15,32.11-129.09,82.6-130.76,82.6-1.34,0-3.68-5.69-5.34-12.37l-.03-.02Z"/>
    </g>
    <g>
      <path class="cls-2" d="M535.11,1472.45c.34-4.77,1.72-8.16,2.76-7.83,1.03,0,9.64-3.74,19.28-8.51,39.94-20.74,117.4-54.75,126.35-55.77,8.61-1.01,9.3-.68,5.5,6.12-8.95,16.32-93.65,140.8-100.17,147.25-4.14,3.74-54.4-73.43-53.71-81.26Z"/>
      <path class="cls-2" d="M724.5,1369.91c7.35-6.36,24.74-20.74,38.45-31.44,13.71-10.7,36.46-29.43,50.17-41.13,60.87-52.5,292.28-243.46,287.92-237.43-2.34,3.35,5.69-4.69,18.4-18.06,12.71-13.38,24.07-24.07,25.75-24.07,1.34,0,30.43-15.72,65.21-34.77,85.95-47.49,90.62-49.82,95.31-45.82,15.38,13.04,42.47,40.46,48.83,49.82,9.04,13.04,8.69,13.71-23.74,49.5-11.37,13.04-32.11,36.11-45.82,51.51q-24.41,28.09-184.92,107.68c-88.29,43.81-161.18,79.59-161.53,79.59-.67,0-49.82,24.07-109.02,53.5-59.18,29.43-110.02,53.5-113.03,53.5-3.35-.33-.67-4.35,8.02-12.37v-.02Z"/>
    </g>
  </g>
</svg>